<?xml version="1.0" encoding="utf-8"?>
<!-- Generator: Adobe Illustrator 17.0.0, SVG Export Plug-In . SVG Version: 6.00 Build 0)  -->
<!DOCTYPE svg PUBLIC "-//W3C//DTD SVG 1.1//EN" "http://www.w3.org/Graphics/SVG/1.1/DTD/svg11.dtd">
<svg version="1.1" id="Layer_1" xmlns="http://www.w3.org/2000/svg" xmlns:xlink="http://www.w3.org/1999/xlink" x="0px" y="0px"
	 width="301px" height="40.003px" viewBox="0 0 301 40.003" enable-background="new 0 0 301 40.003" xml:space="preserve">
<g>
	<line fill="none" stroke="#2BACE2" stroke-width="0.25" stroke-miterlimit="10" x1="85.737" y1="0.306" x2="86.647" y2="0.306"/>
	<line fill="#FFFFFF" x1="85.737" y1="40.003" x2="86.647" y2="40.003"/>
	<polygon fill="#FFC53D" points="0.01,18.348 4.288,16.895 1.067,13.823 	"/>
	<polygon fill="#CD8833" points="4.289,16.896 0.011,18.349 19.308,32.553 	"/>
	<polygon fill="#FFC53D" points="19.308,32.553 25.27,9.198 29.748,7.571 	"/>
	<polygon fill="#C3922D" points="25.269,9.198 19.307,32.553 4.288,16.896 	"/>
	<path fill="#FFFFFF" d="M18.338,19.287L18.33,19.34h0.169l1.099-1.371h-7.773l-0.734,1.094h7.035
		c0.176,0.018,0.231,0.067,0.227,0.099v0.021L18.338,19.287z M20.631,21.426c-0.069,0.043-0.128,0.067-0.166,0.078l-5.412,0.014
		c-1.259,0-2.197-0.164-2.82-0.483c-0.948-0.492-1.411-1.197-1.413-2.147c0-0.435,0.122-0.842,0.37-1.213
		c0.465-0.691,1.18-1.128,2.157-1.307c0.271-0.05,0.485-0.082,0.646-0.096c0.294-0.014,0.625-0.023,0.996-0.023h1.677
		c0.178,0,0.229,0.069,0.227,0.098v0.023l-0.014,0.083l-0.007,0.053h0.154l1.115-1.35h-3.148c-0.773,0.002-1.364,0.025-1.781,0.078
		c-0.229,0.032-0.441,0.064-0.63,0.11c-0.529,0.119-1.054,0.32-1.567,0.611c-0.807,0.455-1.378,1.03-1.715,1.723
		c-0.187,0.394-0.279,0.824-0.279,1.3c0,1.201,0.646,2.156,1.925,2.847c0.59,0.32,1.235,0.538,1.937,0.656
		c0.535,0.085,1.259,0.128,2.174,0.128h5.011l1.124-1.368h-0.244L20.631,21.426z"/>
	<polygon fill="#FCB437" points="1.075,13.82 4.296,16.893 29.756,7.571 	"/>
	<path fill="#FFFFFF" d="M48.056,15.45l-0.013-4.515l0.016-0.06c0.005-0.009,0.022-0.021,0.048-0.035l0.143-0.092l0.015-0.007V10.64
		h-1.586v0.099l0.149,0.096c0.025,0.02,0.042,0.036,0.047,0.046l0.011,4.501l-0.018,0.071c-0.011,0.014-0.026,0.03-0.04,0.039
		l-0.139,0.091l-0.011,0.009v0.096h1.586v-0.096l-0.154-0.099C48.08,15.475,48.06,15.461,48.056,15.45"/>
	<path fill="#FFFFFF" d="M52.157,15.092l0.057-0.06l1.128-1.208l-0.017-2.892l0.007-0.057l0.046-0.041l0.141-0.087l0.017-0.007
		V10.64h-1.591v0.099l0.156,0.099c0.051,0.032,0.067,0.06,0.067,0.092v1.535h-3.372l-0.71,0.902l0.106,0.032l0.014,0.003
		l0.218-0.126c0.047-0.03,0.085-0.044,0.109-0.051c0.023-0.007,0.058-0.011,0.104-0.011h3.53L52.157,15.092z"/>
	<path fill="#FFFFFF" d="M56.005,11.589l-3.925,4.107h1.71v-0.11h-0.031c-0.035,0-0.067-0.007-0.089-0.011
		c-0.071-0.011-0.099-0.03-0.106-0.05l3.103-3.231L56.005,11.589z"/>
	<path fill="#FFFFFF" d="M69.663,12.619c-0.193-0.608-0.627-1.101-1.304-1.478c-0.609-0.341-1.494-0.505-2.647-0.505h-4.462v0.096
		l0.151,0.099c0.024,0.018,0.038,0.032,0.045,0.043l-0.002,0.499h2.194v0.004h2.067c0.876,0,1.513,0.115,1.902,0.343
		c0.62,0.363,0.927,0.842,0.93,1.446c0,0.314-0.084,0.59-0.244,0.835c-0.16,0.243-0.402,0.451-0.726,0.62
		c-0.417,0.215-1.05,0.327-1.897,0.327h-2.27v-3.302h-1.166l0.011,3.743l-0.02,0.066c-0.007,0.011-0.022,0.025-0.04,0.043
		l-0.135,0.082l-0.014,0.011v0.099h3.638c0.711,0,1.255-0.039,1.644-0.117c0.526-0.112,0.989-0.298,1.393-0.572
		c0.402-0.27,0.689-0.581,0.857-0.931c0.125-0.261,0.186-0.54,0.186-0.835C69.754,13.017,69.723,12.811,69.663,12.619"/>
	<path fill="#FFFFFF" d="M56.236,11.347l0.766,0.813l0.867,0.872h-1.437l-0.709,0.78l0.087,0.046l0.016,0.007l0.168-0.089
		c0.022-0.011,0.04-0.018,0.056-0.018c0.015-0.003,0.093-0.003,0.217-0.003h2.281l1.597,1.687c0.015,0.009,0.02,0.011,0.026,0.03
		l0.017,0.053c0,0.021-0.044,0.055-0.195,0.055H59.96v0.114h1.729l-4.787-5.045L56.236,11.347z"/>
	<path fill="#FFFFFF" d="M44.58,10.74l0.151,0.096c0.051,0.037,0.071,0.067,0.071,0.099v4.448l-0.021,0.071
		c-0.017,0.014-0.035,0.03-0.048,0.039l-0.138,0.092l-0.015,0.007v0.099h1.576v-0.099l-0.139-0.098
		c-0.027-0.019-0.043-0.037-0.045-0.044l-0.014-4.515l0.021-0.066l0.04-0.037l0.124-0.085l0.013-0.007V10.64H44.58V10.74z"/>
	<path fill="#FFFFFF" d="M37.677,14.889c-0.049,0.03-0.087,0.048-0.113,0.055l-3.667,0.009c-0.849,0-1.486-0.11-1.906-0.327
		c-0.642-0.334-0.957-0.81-0.958-1.457c0-0.295,0.083-0.565,0.249-0.821c0.319-0.467,0.8-0.764,1.463-0.885
		c0.182-0.034,0.33-0.053,0.436-0.064c0.202-0.011,0.426-0.014,0.675-0.014h1.135c0.122,0.011,0.156,0.044,0.154,0.066v0.012
		l-0.009,0.057l-0.005,0.039h0.106l0.757-0.917h-2.134c-0.524,0-0.924,0.018-1.206,0.051c-0.156,0.019-0.296,0.044-0.427,0.075
		c-0.358,0.082-0.711,0.217-1.06,0.414c-0.547,0.309-0.934,0.698-1.162,1.169c-0.126,0.266-0.189,0.558-0.187,0.881
		c-0.002,0.813,0.436,1.46,1.302,1.927c0.398,0.219,0.835,0.364,1.313,0.442c0.362,0.06,0.849,0.089,1.469,0.089h3.394l0.762-0.925
		h-0.165L37.677,14.889z"/>
	<path fill="#FFFFFF" d="M36.123,13.443l-0.005,0.035h0.115l0.744-0.929h-5.264l-0.495,0.741h4.763
		c0.116,0.013,0.155,0.046,0.153,0.067v0.014L36.123,13.443z"/>
	<path fill="#FFFFFF" d="M36.568,10.64l-0.71,0.888l0.107,0.039l0.011,0.003l0.218-0.112c0.073-0.048,0.144-0.069,0.213-0.069h2.984
		v4l-0.018,0.066c-0.014,0.016-0.033,0.034-0.043,0.037l-0.14,0.089l-0.014,0.011v0.099h1.588v-0.099l-0.163-0.099l-0.051-0.046
		c0,0-0.003-0.025-0.002-0.057v-4h2.655c0.111,0.014,0.144,0.044,0.142,0.069v0.108h0.1l0.76-0.927H36.568z"/>
	<polygon fill="#FFFFFF" points="31.64,18.058 32.22,18.058 33.992,22.575 33.076,22.575 32.718,21.639 31.541,21.639 
		31.288,20.994 32.477,20.994 32.006,19.753 31.879,19.362 31.753,19.753 30.691,22.575 29.847,22.575 	"/>
	<rect x="36.755" y="18.058" fill="#FFFFFF" width="0.876" height="4.517"/>
	<path fill="#FFFFFF" d="M42.234,21.095h-0.498v1.48h-0.877v-4.517h1.448c1.049,0,1.633,0.473,1.633,1.442
		c0,0.696-0.326,1.242-0.917,1.474l1.229,1.6H43.27L42.234,21.095z M42.306,20.477c0.558,0,0.743-0.366,0.743-0.892
		c0-0.51-0.186-0.831-0.751-0.831h-0.563v1.723H42.306z"/>
	<polygon fill="#FFFFFF" points="46.536,18.058 47.446,18.058 48.277,21.275 48.31,21.275 49.114,18.776 48.881,18.058 
		49.745,18.058 50.787,21.275 50.814,21.275 51.651,18.058 52.515,18.058 51.146,22.575 50.409,22.575 49.499,19.779 48.583,22.575 
		47.871,22.575 	"/>
	<polygon fill="#FFFFFF" points="56.299,18.058 56.878,18.058 58.651,22.575 57.734,22.575 57.376,21.639 56.199,21.639 
		55.946,20.994 57.136,20.994 56.664,19.753 56.537,19.362 56.411,19.753 55.349,22.575 54.505,22.575 	"/>
	<polygon fill="#FFFFFF" points="61.931,20.723 60.456,18.06 61.425,18.06 62.409,19.959 63.418,18.06 64.288,18.06 62.807,20.723 
		62.807,22.577 61.931,22.577 	"/>
	<path fill="#FFFFFF" d="M66.805,22.383v-0.918c0.206,0.186,0.644,0.467,1.175,0.467c0.586,0,0.819-0.227,0.819-0.631
		c0-0.334-0.201-0.487-0.732-0.611l-0.165-0.041c-0.738-0.179-1.144-0.584-1.144-1.295c0-0.87,0.559-1.403,1.607-1.403
		c0.631,0,1.004,0.187,1.157,0.295v0.917c-0.2-0.181-0.651-0.455-1.189-0.455c-0.519,0-0.732,0.174-0.732,0.547
		c0,0.325,0.14,0.478,0.699,0.611l0.165,0.039c0.797,0.192,1.182,0.544,1.182,1.275c0,0.885-0.531,1.501-1.693,1.501
		C67.323,22.682,66.957,22.488,66.805,22.383"/>
	<path fill="#FFFFFF" d="M29.848,29.3v-4.547h1.417c0.639,0,1.095,0.13,1.371,0.387c0.277,0.258,0.415,0.631,0.415,1.117
		c0,0.508-0.138,0.92-0.415,1.235c-0.276,0.313-0.712,0.471-1.304,0.471H30.73V29.3H29.848z M30.73,25.455v1.833h0.535
		c0.593,0,0.89-0.311,0.89-0.931c0-0.298-0.067-0.524-0.201-0.675c-0.134-0.151-0.365-0.227-0.696-0.227H30.73z"/>
	<polygon fill="#FFFFFF" points="35.084,29.3 36.89,24.753 37.472,24.753 39.257,29.3 38.334,29.3 37.972,28.357 36.79,28.357 
		36.536,27.709 37.732,27.709 37.258,26.456 37.131,26.062 37.003,26.456 35.933,29.3 	"/>
	<path fill="#FFFFFF" d="M44.393,29.3l-1.043-1.49h-0.502v1.49h-0.882v-4.547h1.457c0.535,0,0.944,0.119,1.224,0.364
		c0.282,0.243,0.423,0.606,0.423,1.087c0,0.352-0.081,0.659-0.242,0.92c-0.16,0.261-0.387,0.448-0.682,0.565l1.239,1.611H44.393z
		 M42.848,27.187h0.575c0.5,0,0.75-0.297,0.75-0.897c0-0.27-0.059-0.478-0.175-0.622c-0.115-0.142-0.309-0.213-0.58-0.213h-0.569
		V27.187z"/>
	<polygon fill="#FFFFFF" points="48.954,29.3 48.954,25.508 47.65,25.508 47.65,24.753 51.235,24.753 51,25.508 49.837,25.508 
		49.837,29.3 	"/>
	<polygon fill="#FFFFFF" points="53.957,29.3 53.957,24.753 54.699,24.753 56.785,27.709 56.799,27.709 56.799,24.753 
		57.589,24.753 57.589,29.3 56.947,29.3 54.758,26.218 54.746,26.218 54.746,29.3 	"/>
	<polygon fill="#FFFFFF" points="60.765,29.3 60.765,24.753 63.735,24.753 63.5,25.508 61.646,25.508 61.646,26.598 62.991,26.598 
		62.991,27.295 61.646,27.295 61.646,28.545 63.5,28.545 63.735,29.3 	"/>
	<path fill="#FFFFFF" d="M69.057,29.3l-1.043-1.49h-0.502v1.49h-0.882v-4.547h1.457c0.535,0,0.944,0.119,1.225,0.364
		c0.282,0.243,0.422,0.606,0.422,1.087c0,0.352-0.081,0.659-0.242,0.92c-0.16,0.261-0.387,0.448-0.682,0.565l1.239,1.611H69.057z
		 M67.512,27.187h0.575c0.5,0,0.75-0.297,0.75-0.897c0-0.27-0.059-0.478-0.175-0.622c-0.115-0.142-0.309-0.213-0.58-0.213h-0.569
		V27.187z"/>
	<rect x="85.592" y="0.234" fill="#FFFFFF" width="0.732" height="39.289"/>
	<path fill="#FFFFFF" d="M192.431,29.061l1.666-7.951c0.332-1.595,0.842-2.935,1.526-4.013c0.686-1.078,1.496-1.945,2.428-2.592
		c0.884-0.609,1.867-1.05,2.943-1.329c1.075-0.277,2.149-0.412,3.224-0.407c0.08,0,0.181,0.003,0.3,0.003
		c0.121,0.002,1.135,0.004,1.213,0.004c0,0-0.618,0.748-1.037,1.842c-0.318,0.835-0.339,2.512-0.339,2.512l-1.703-0.011
		c-1.277-0.007-2.192,0.272-2.869,0.838c-0.678,0.57-1.146,1.467-1.403,2.693l-1.757,8.407L192.431,29.061z"/>
	<path fill="#FFFFFF" d="M205.042,23.255l3.81,0.004c-0.151,1.076,0.062,1.83,0.634,2.259c0.588,0.504,1.517,0.757,2.789,0.757
		c1.126,0,2.032-0.194,2.721-0.59c0.687-0.391,1.137-0.968,1.344-1.721c0.314-1.148-1.064-2.08-4.137-2.803l-0.092-0.051
		l-0.407-0.108c-1.742-0.396-2.863-0.812-3.364-1.242c-0.616-0.398-0.97-0.97-1.051-1.723c-0.187-0.648-0.142-1.471,0.133-2.476
		c0.483-1.757,1.478-3.141,2.989-4.142c1.497-0.97,3.428-1.449,5.787-1.446c2.215,0,3.783,0.506,4.709,1.51
		c0.927,1.114,1.183,2.567,0.764,4.361l-2.18-0.002c-0.835-0.004-1.328-0.38-1.485-1.135c-0.083-0.357-0.256-0.661-0.513-0.915
		c-0.526-0.465-1.35-0.7-2.476-0.7c-1.089,0-1.925,0.195-2.505,0.59c-0.652,0.394-1.076,0.95-1.274,1.664
		c-0.265,0.972,0.591,1.689,2.568,2.158c0.567,0.181,0.993,0.288,1.274,0.325c0.593,0.217,1.117,0.386,1.575,0.513
		c0.455,0.128,0.817,0.224,1.087,0.295c0.451,0.217,0.899,0.433,1.35,0.647c0.607,0.432,1.018,0.988,1.231,1.67
		c0.192,0.755,0.165,1.579-0.08,2.476c-0.531,1.936-1.599,3.446-3.201,4.519c-1.581,1.002-3.57,1.503-5.968,1.503
		c-2.467-0.004-4.178-0.526-5.124-1.567C204.891,26.844,204.591,25.298,205.042,23.255"/>
	<path fill="#FFFFFF" d="M221.958,29.036l4.543-16.573c0.148-0.54,0.462-0.998,0.947-1.371c0.483-0.38,1.002-0.558,1.547-0.558
		l11.65,0.002l-0.868,3.171h-9.806l-1.091,3.979l7.3-0.003l-0.341,1.249c-0.147,0.538-0.462,0.997-0.949,1.369
		c-0.483,0.379-1.002,0.558-1.545,0.558l-5.329-0.004l-1.305,4.741l9.808,0.002l-0.947,3.439H221.958z"/>
	<path fill="#FFFFFF" d="M239.074,29.061l4.547-16.594c0.148-0.54,0.462-0.995,0.945-1.371c0.488-0.377,1.011-0.565,1.552-0.565
		l7.126,0.011c2.034,0,3.423,0.432,4.167,1.293c0.769,0.899,0.92,2.206,0.448,3.929c-0.314,1.148-0.83,2.1-1.544,2.853
		c-0.632,0.718-1.465,1.236-2.497,1.56c0.755,0.288,1.218,0.718,1.389,1.29c0.178,0.54,0.128,1.453-0.155,2.748l-0.496,2.204
		c-0.06,0.217-0.121,0.451-0.192,0.702c-0.069,0.25-0.114,0.485-0.137,0.698c-0.069,0.646,0.048,1.062,0.325,1.243h-4.259
		c-0.083-0.357-0.087-0.744-0.016-1.14c0.085-0.574,0.156-0.968,0.217-1.183l0.49-1.989c0.22-1.08,0.213-1.848-0.018-2.313
		c-0.293-0.398-0.947-0.597-1.963-0.597l-4.085-0.003l-1.981,7.226H239.074z M245.805,18.605l4.521,0.004
		c0.979,0.002,1.76-0.196,2.339-0.588c0.579-0.396,0.982-1.004,1.21-1.829c0.226-0.826,0.155-1.435-0.206-1.83
		c-0.318-0.432-0.915-0.648-1.785-0.648l-4.737-0.005L245.805,18.605z"/>
	<path fill="#FFFFFF" d="M257.624,29.061l4.543-16.577c0.146-0.537,0.462-0.995,0.947-1.375c0.485-0.375,1.013-0.574,1.556-0.574
		h6.847c1.927,0.003,3.288,0.417,4.087,1.206c0.783,0.863,0.972,2.03,0.568,3.503c-0.258,0.931-0.671,1.72-1.249,2.366
		c-0.567,0.608-1.261,1.092-2.085,1.45c0.835,0.396,1.407,0.954,1.719,1.673c0.284,0.679,0.275,1.577-0.028,2.689
		c-0.49,1.792-1.455,3.19-2.893,4.196c-1.464,0.97-3.286,1.442-5.464,1.442H257.624z M264.441,17.71l4.41,0.002
		c0.941,0,1.677-0.162,2.201-0.481c0.524-0.325,0.881-0.824,1.067-1.506c0.188-0.682,0.108-1.186-0.242-1.51
		c-0.284-0.286-0.952-0.432-2.004-0.432l-4.359-0.003L264.441,17.71z M262.242,25.725l4.574,0.007c1.018,0,1.852-0.197,2.504-0.592
		c0.606-0.357,1.029-0.968,1.263-1.831c0.236-0.86,0.154-1.487-0.245-1.883c-0.375-0.359-1.124-0.54-2.247-0.54l-4.522-0.003
		L262.242,25.725z"/>
	<path fill="#FFFFFF" d="M276.503,29.061l4.538-16.562c0.149-0.54,0.465-0.995,0.95-1.371c0.483-0.377,1.023-0.593,1.568-0.593h1.89
		l-5.078,18.527H276.503z"/>
	<path fill="#FFFFFF" d="M191.495,13.834c0.087-0.522-0.016-0.981-0.309-1.364c-0.312-0.416-0.746-0.625-1.307-0.629l-2.147-0.016
		l-0.904,4.286C188.884,15.177,190.594,14.306,191.495,13.834"/>
	<path fill="#FFFFFF" d="M190.788,17.134c-1.636,0.73-3.155,1.32-4.556,1.801l-2.13,10.125h4.19l2.533-12.026L190.788,17.134z"/>
	<path fill="#FFFFFF" d="M296.109,22.133L296.109,22.133h-4.813l4.762-7.846l0.508,8.361c1.124-0.142,2.513,0.428,3.824,0.027
		l-1.14-12.141h-3.004c-0.908,0-1.68,0.448-2.233,1.275L283.07,29.061h4.094l2.259-3.791l7.273-0.004l0.19,3.794h4.103l-0.687-7.333
		C297.598,22.208,296.109,22.133,296.109,22.133"/>
	<path fill="#FFFFFF" d="M175.763,22.133L175.763,22.133h-4.815l4.762-7.846l0.384,6.549c1.126-0.139,2.385-0.448,3.698-0.849
		l-0.888-9.454h-3.007c-0.908,0-1.679,0.448-2.231,1.275l-10.941,17.252h4.094l2.258-3.791l7.272-0.004l0.196,3.794h4.099
		l-0.688-7.333C177.251,22.208,175.763,22.133,175.763,22.133"/>
	<polygon fill="#FFFFFF" points="125.619,27.817 128.213,30.816 129.879,28.89 126.585,25.076 124.921,23.151 123.378,21.346 
		121.845,23.385 123.581,25.401 123.578,25.405 	"/>
	<path fill="#FFFFFF" d="M158.887,13.273c-2.359-2.315-4.868-3.435-7.455-3.329c-2.057,0.085-3.734,0.943-4.867,1.737
		c-0.046,0.03-0.086,0.06-0.128,0.092c-0.014,0.011-0.029,0.021-0.042,0.032c-0.144,0.103-0.28,0.206-0.404,0.306l-1.791-1.94
		c-0.438-0.515-1.107-1.343-1.279-1.819c-0.131-0.369-0.162-0.746-0.203-0.963c-0.149-0.767-0.233-2.041-0.233-2.041
		s0-0.304-0.144-0.648l-0.178-0.444c0,0,1.492-0.657,2.558-0.604l0.64,0.782l0.021-0.775V2.537c0,0-0.069-0.602-0.64-1.057
		c-0.424-0.336-0.62-0.366-1.144-0.444c-0.656-0.094-0.776,0.087-1.269-0.373L141.878,0l-2.787,0.011l-1.091,0.407
		c0,0-0.6,0.144-1.008,1.167l-0.831,2.629c0,0-0.226,0.87-0.274,2.185c-0.051,1.32-0.027,0.046-0.027,0.046
		s-0.059,1.968-0.293,2.556l-0.451,1.551c-0.648,1.544-1.306,2.306-1.321,2.322l-2.504,2.901h0.002l-0.698,0.81l-0.698-0.81
		l0.009-0.007l-1.537-1.762l-0.218-0.25h-0.002l-0.768-0.881c-0.014-0.018-0.711-0.822-1.375-2.453l-0.413-1.419
		c-0.234-0.588-0.293-2.556-0.293-2.556s0.024,1.274-0.027-0.046c-0.048-1.315-0.275-2.185-0.275-2.185l-0.831-2.629
		c-0.405-1.023-1.007-1.167-1.007-1.167l-1.093-0.407L119.281,0l-0.451,0.662c-0.491,0.46-0.614,0.279-1.27,0.373
		c-0.524,0.078-0.72,0.108-1.144,0.444c-0.571,0.455-0.64,1.057-0.64,1.057v1.123l0.022,0.775l0.64-0.782
		c1.067-0.053,2.558,0.604,2.558,0.604L118.817,4.7c-0.144,0.345-0.144,0.648-0.144,0.648s-0.082,1.274-0.233,2.041
		c-0.043,0.217-0.071,0.593-0.203,0.963c-0.229,0.641-1.366,1.922-1.621,2.206l-1.433,1.552c-1.099-0.885-3.001-2.068-5.436-2.167
		c-2.586-0.107-5.097,1.014-7.456,3.329l-0.726,0.714l0.545,0.86c0.08,0.13,2.018,3.13,5.495,3.805
		c2.254,0.437,4.708-0.247,7.036-1.915l-1.694-1.922c-1.733,1.242-3.301,1.656-4.839,1.368c-1.452-0.277-2.554-1.188-3.207-1.874
		c1.564-1.286,3.147-1.906,4.72-1.849c2.755,0.101,4.688,2.267,4.705,2.283l4.083,4.729l1.663-1.931l-3.124-3.615l3.652-4.562
		l1.49-1.856c0.349,1.837,2.019,5.006,2.734,6.112l-4.054,4.727l0,0l-1.619,1.886h-0.002l-0.022,0.029l-0.016,0.019h0.002
		l-1.732,2.02c-0.904,0.94-4.052,4.062-7.742,6.05c0,0,1.157,0.796,2.679,0.767c0.913-0.011,1.958-0.32,2.968-1.275
		c0.413-0.394,1.015-0.931,1.604-1.508c0,0-0.276,0.677,0.382,1.902c0.506,0.941,1.392,1.499,2.592,1.545
		c1.875,0.069,3.223-0.917,4.163-2.043l-1.346-1.489c0,0-1.22,1.734-2.702,0.675c-0.544-0.513-0.502-1.378-0.502-1.378
		s-0.013-0.288,0.271-0.895c1.009-1.716,3.774-5.325,5.413-7.425l1.264-1.602l1.801,2.08l0.004-0.005l0.709,0.821l-0.003,0.004
		l0.04,0.046l-3.157,3.915l1.435,1.608l3.336-3.647l0.007,0.009l0.009-0.009l4.077,4.533l-0.004,0.005l1.689,1.899v-0.002
		l0.602,0.641l0.417,0.465c0.928,1.018,2.21,1.858,3.949,1.794c1.201-0.046,2.084-0.604,2.591-1.545
		c0.66-1.226,0.382-1.902,0.382-1.902c0.591,0.577,1.193,1.114,1.606,1.508c2.686,2.542,5.646,0.508,5.646,0.508
		c-3.692-1.988-6.838-5.11-7.744-6.05l-0.984-1.151l-2.057,2.308c1,1.366,0.949,2.091,0.949,2.091s0.042,0.865-0.501,1.378
		c-1.476,1.073-2.782-0.771-2.782-0.771l-4.094-4.972l-0.022-0.023l-2.1-2.593l0.04-0.046l-0.005-0.003l1.559-1.805l-0.002-0.002
		l0.941-1.085l0.413,0.522l2.675,3.618l1.881-2.236l-3.061-3.57l-0.005,0.011l-0.3-0.35c0.713-1.107,2.384-4.276,2.732-6.112
		l1.489,1.856l3.651,4.562l-0.748,0.865h0.002l-3.07,3.556l-2.652,3.069l-0.797,0.922l1.666,1.924l1.324-1.531l0.137-0.16
		l1.988-2.297l1.159-1.343l3.619-4.188c0.015-0.016,1.949-2.181,4.703-2.283c1.573-0.057,3.155,0.563,4.719,1.849
		c-0.65,0.686-1.755,1.597-3.204,1.874c-1.539,0.288-3.123-0.137-4.857-1.382l-1.651,1.92c2.328,1.668,4.756,2.368,7.007,1.931
		c3.48-0.675,5.417-3.675,5.497-3.805l0.545-0.86L158.887,13.273z"/>
	<path fill="#FFFFFF" d="M132.966,32.379l-1.708,2.014l0.193,0.227l-0.004,0.003l1.037,1.201c0.545,0.668,2.043,2.394,2.274,4.171
		c0,0,1.481-2.036,0.354-4.896C135.113,35.1,134.946,34.347,132.966,32.379"/>
	<path fill="#FFFFFF" d="M131.615,28.526l-2.69,3.112c-2.706,2.524-2.914,3.462-2.914,3.462c-1.125,2.863,0.355,4.896,0.355,4.896
		c0.231-1.776,1.727-3.503,2.274-4.167l1.038-1.205l-0.005-0.003l3.718-4.302l0.003,0.003l2.201-2.547l-1.644-1.954L131.615,28.526z
		"/>
</g>
</svg>
